<svg version="1.1" xmlns="http://www.w3.org/2000/svg" viewBox="0 0 278.20745841773703 190" width="278.20745841773703" height="190">
  <!-- svg-source:excalidraw -->
  
  <defs>
    <style class="style-fonts">
      @font-face {
        font-family: "Virgil";
        src: url("https://excalidraw.com/Virgil.woff2");
      }
      @font-face {
        font-family: "Cascadia";
        src: url("https://excalidraw.com/Cascadia.woff2");
      }
    </style>
    
  </defs>
  <rect x="0" y="0" width="278.20745841773703" height="190" fill="#ffffff"></rect><g stroke-linecap="round"><g transform="translate(11.20745841773703 10) rotate(0 127.89627079113143 85)"><path d="M0 0 C4.43 24.45, -16.26 118.38, 26.57 146.71 C69.4 175.04, 218.59 166.12, 257 170" stroke="#1e1e1e" stroke-width="4.5" fill="none" stroke-dasharray="8 12"></path></g><g transform="translate(11.20745841773703 10) rotate(0 127.89627079113143 85)"><path d="M266.5 170 C266.5 170.55, 266.45 171.11, 266.36 171.65 C266.26 172.19, 266.12 172.73, 265.93 173.25 C265.74 173.77, 265.5 174.27, 265.23 174.75 C264.95 175.23, 264.63 175.69, 264.28 176.11 C263.92 176.53, 263.53 176.92, 263.11 177.28 C262.69 177.63, 262.23 177.95, 261.75 178.23 C261.27 178.5, 260.77 178.74, 260.25 178.93 C259.73 179.12, 259.19 179.26, 258.65 179.36 C258.11 179.45, 257.55 179.5, 257 179.5 C256.45 179.5, 255.89 179.45, 255.35 179.36 C254.81 179.26, 254.27 179.12, 253.75 178.93 C253.23 178.74, 252.73 178.5, 252.25 178.23 C251.77 177.95, 251.31 177.63, 250.89 177.28 C250.47 176.92, 250.08 176.53, 249.72 176.11 C249.37 175.69, 249.05 175.23, 248.77 174.75 C248.5 174.27, 248.26 173.77, 248.07 173.25 C247.88 172.73, 247.74 172.19, 247.64 171.65 C247.55 171.11, 247.5 170.55, 247.5 170 C247.5 169.45, 247.55 168.89, 247.64 168.35 C247.74 167.81, 247.88 167.27, 248.07 166.75 C248.26 166.23, 248.5 165.73, 248.77 165.25 C249.05 164.77, 249.37 164.31, 249.72 163.89 C250.08 163.47, 250.47 163.08, 250.89 162.72 C251.31 162.37, 251.77 162.05, 252.25 161.77 C252.73 161.5, 253.23 161.26, 253.75 161.07 C254.27 160.88, 254.81 160.74, 255.35 160.64 C255.89 160.55, 256.45 160.5, 257 160.5 C257.55 160.5, 258.11 160.55, 258.65 160.64 C259.19 160.74, 259.73 160.88, 260.25 161.07 C260.77 161.26, 261.27 161.5, 261.75 161.77 C262.23 162.05, 262.69 162.37, 263.11 162.72 C263.53 163.08, 263.92 163.47, 264.28 163.89 C264.63 164.31, 264.95 164.77, 265.23 165.25 C265.5 165.73, 265.74 166.23, 265.93 166.75 C266.12 167.27, 266.26 167.81, 266.36 168.35 C266.45 168.89, 266.48 169.73, 266.5 170 C266.52 170.27, 266.52 169.73, 266.5 170" stroke="none" stroke-width="0" fill="#1e1e1e"></path></g></g><mask></mask></svg>