<svg version="1.1" xmlns="http://www.w3.org/2000/svg" viewBox="0 0 100.95936367060085 147.5208119869232" width="100.95936367060085" height="147.5208119869232">
  <!-- svg-source:excalidraw -->
  
  <defs>
    <style class="style-fonts">
      @font-face {
        font-family: "Virgil";
        src: url("https://excalidraw.com/Virgil.woff2");
      }
      @font-face {
        font-family: "Cascadia";
        src: url("https://excalidraw.com/Cascadia.woff2");
      }
    </style>
    
  </defs>
  <rect x="0" y="0" width="100.95936367060085" height="147.5208119869232" fill="#ffffff"></rect><g stroke-linecap="round"><g transform="translate(13.162989865942222 10.76088730916382) rotate(0 37.3166919693582 62.99951868429778)"><path d="M-2.39 -0.76 C-1.68 17.76, -7.76 91.07, 5.61 112.33 C18.97 133.58, 65.94 124.01, 77.8 126.76" stroke="#1e1e1e" stroke-width="4.5" fill="none" stroke-dasharray="8 12"></path></g><g transform="translate(13.162989865942222 10.76088730916382) rotate(0 37.3166919693582 62.99951868429778)"><path d="M84.02 119.94 C85.39 121.39, 85.56 123.7, 86.05 125.56 C86.53 127.41, 87.49 129.38, 86.93 131.07 C86.37 132.76, 84.75 135.11, 82.7 135.71 C80.65 136.32, 77 135, 74.64 134.7 C72.28 134.41, 69.38 135.1, 68.55 133.93 C67.72 132.77, 69.45 130.11, 69.66 127.7 C69.87 125.3, 68.85 121.09, 69.8 119.51 C70.75 117.94, 72.23 117.05, 75.35 118.26 C78.47 119.48, 87.17 123.8, 88.53 126.79 C89.88 129.79, 83.55 136.5, 83.49 136.22" stroke="none" stroke-width="0" fill="#1e1e1e"></path></g></g><mask></mask></svg>