<svg version="1.1" xmlns="http://www.w3.org/2000/svg" viewBox="0 0 344 167" width="344" height="167">
  <!-- svg-source:excalidraw -->
  
  <defs>
    <style class="style-fonts">
      @font-face {
        font-family: "Virgil";
        src: url("https://excalidraw.com/Virgil.woff2");
      }
      @font-face {
        font-family: "Cascadia";
        src: url("https://excalidraw.com/Cascadia.woff2");
      }
    </style>
    
  </defs>
  <rect x="0" y="0" width="344" height="167" fill="#ffffff"></rect><g stroke-linecap="round"><g transform="translate(10 10) rotate(0 162 73.5)"><path d="M0 0 C19.24 20.57, 61.45 98.89, 115.45 123.39 C169.45 147.89, 289.24 143.07, 324 147" stroke="#1e1e1e" stroke-width="4.5" fill="none" stroke-dasharray="8 12"></path></g><g transform="translate(10 10) rotate(0 162 73.5)"><path d="M333.5 147 C333.5 147.55, 333.45 148.11, 333.36 148.65 C333.26 149.19, 333.12 149.73, 332.93 150.25 C332.74 150.77, 332.5 151.27, 332.23 151.75 C331.95 152.23, 331.63 152.69, 331.28 153.11 C330.92 153.53, 330.53 153.92, 330.11 154.28 C329.69 154.63, 329.23 154.95, 328.75 155.23 C328.27 155.5, 327.77 155.74, 327.25 155.93 C326.73 156.12, 326.19 156.26, 325.65 156.36 C325.11 156.45, 324.55 156.5, 324 156.5 C323.45 156.5, 322.89 156.45, 322.35 156.36 C321.81 156.26, 321.27 156.12, 320.75 155.93 C320.23 155.74, 319.73 155.5, 319.25 155.23 C318.77 154.95, 318.31 154.63, 317.89 154.28 C317.47 153.92, 317.08 153.53, 316.72 153.11 C316.37 152.69, 316.05 152.23, 315.77 151.75 C315.5 151.27, 315.26 150.77, 315.07 150.25 C314.88 149.73, 314.74 149.19, 314.64 148.65 C314.55 148.11, 314.5 147.55, 314.5 147 C314.5 146.45, 314.55 145.89, 314.64 145.35 C314.74 144.81, 314.88 144.27, 315.07 143.75 C315.26 143.23, 315.5 142.73, 315.77 142.25 C316.05 141.77, 316.37 141.31, 316.72 140.89 C317.08 140.47, 317.47 140.08, 317.89 139.72 C318.31 139.37, 318.77 139.05, 319.25 138.77 C319.73 138.5, 320.23 138.26, 320.75 138.07 C321.27 137.88, 321.81 137.74, 322.35 137.64 C322.89 137.55, 323.45 137.5, 324 137.5 C324.55 137.5, 325.11 137.55, 325.65 137.64 C326.19 137.74, 326.73 137.88, 327.25 138.07 C327.77 138.26, 328.27 138.5, 328.75 138.77 C329.23 139.05, 329.69 139.37, 330.11 139.72 C330.53 140.08, 330.92 140.47, 331.28 140.89 C331.63 141.31, 331.95 141.77, 332.23 142.25 C332.5 142.73, 332.74 143.23, 332.93 143.75 C333.12 144.27, 333.26 144.81, 333.36 145.35 C333.45 145.89, 333.48 146.73, 333.5 147 C333.52 147.27, 333.52 146.73, 333.5 147" stroke="none" stroke-width="0" fill="#1e1e1e"></path></g></g><mask></mask></svg>