<svg version="1.1" xmlns="http://www.w3.org/2000/svg" viewBox="0 0 344 274" width="344" height="274">
  <!-- svg-source:excalidraw -->
  
  <defs>
    <style class="style-fonts">
      @font-face {
        font-family: "Virgil";
        src: url("https://excalidraw.com/Virgil.woff2");
      }
      @font-face {
        font-family: "Cascadia";
        src: url("https://excalidraw.com/Cascadia.woff2");
      }
    </style>
    
  </defs>
  <rect x="0" y="0" width="344" height="274" fill="#ffffff"></rect><g stroke-linecap="round"><g transform="translate(10 10) rotate(0 162 127)"><path d="M0 0 C19.24 35.53, 61.45 170.87, 115.45 213.21 C169.45 255.54, 289.24 247.2, 324 254" stroke="#1e1e1e" stroke-width="4.5" fill="none" stroke-dasharray="8 12"></path></g><g transform="translate(10 10) rotate(0 162 127)"><path d="M333.5 254 C333.5 254.55, 333.45 255.11, 333.36 255.65 C333.26 256.19, 333.12 256.73, 332.93 257.25 C332.74 257.77, 332.5 258.27, 332.23 258.75 C331.95 259.23, 331.63 259.69, 331.28 260.11 C330.92 260.53, 330.53 260.92, 330.11 261.28 C329.69 261.63, 329.23 261.95, 328.75 262.23 C328.27 262.5, 327.77 262.74, 327.25 262.93 C326.73 263.12, 326.19 263.26, 325.65 263.36 C325.11 263.45, 324.55 263.5, 324 263.5 C323.45 263.5, 322.89 263.45, 322.35 263.36 C321.81 263.26, 321.27 263.12, 320.75 262.93 C320.23 262.74, 319.73 262.5, 319.25 262.23 C318.77 261.95, 318.31 261.63, 317.89 261.28 C317.47 260.92, 317.08 260.53, 316.72 260.11 C316.37 259.69, 316.05 259.23, 315.77 258.75 C315.5 258.27, 315.26 257.77, 315.07 257.25 C314.88 256.73, 314.74 256.19, 314.64 255.65 C314.55 255.11, 314.5 254.55, 314.5 254 C314.5 253.45, 314.55 252.89, 314.64 252.35 C314.74 251.81, 314.88 251.27, 315.07 250.75 C315.26 250.23, 315.5 249.73, 315.77 249.25 C316.05 248.77, 316.37 248.31, 316.72 247.89 C317.08 247.47, 317.47 247.08, 317.89 246.72 C318.31 246.37, 318.77 246.05, 319.25 245.77 C319.73 245.5, 320.23 245.26, 320.75 245.07 C321.27 244.88, 321.81 244.74, 322.35 244.64 C322.89 244.55, 323.45 244.5, 324 244.5 C324.55 244.5, 325.11 244.55, 325.65 244.64 C326.19 244.74, 326.73 244.88, 327.25 245.07 C327.77 245.26, 328.27 245.5, 328.75 245.77 C329.23 246.05, 329.69 246.37, 330.11 246.72 C330.53 247.08, 330.92 247.47, 331.28 247.89 C331.63 248.31, 331.95 248.77, 332.23 249.25 C332.5 249.73, 332.74 250.23, 332.93 250.75 C333.12 251.27, 333.26 251.81, 333.36 252.35 C333.45 252.89, 333.48 253.73, 333.5 254 C333.52 254.27, 333.52 253.73, 333.5 254" stroke="none" stroke-width="0" fill="#1e1e1e"></path></g></g><mask></mask></svg>